<svg width="14" height="17" viewBox="0 0 14 17" fill="none" xmlns="http://www.w3.org/2000/svg">
<path d="M11.0901 8.88023C11.0727 6.9459 12.6744 6.00484 12.7476 5.96103C11.8405 4.63886 10.4346 4.45821 9.9405 4.44381C8.75967 4.31958 7.61425 5.1502 7.01273 5.1502C6.3992 5.1502 5.4729 4.45581 4.47456 4.47622C3.18987 4.49603 1.98802 5.23963 1.32887 6.39435C-0.0314658 8.74879 0.98308 12.2087 2.28638 14.1119C2.93833 15.0445 3.70014 16.0846 4.69728 16.048C5.6728 16.0084 6.0372 15.4268 7.21444 15.4268C8.38086 15.4268 8.72305 16.048 9.73999 16.0246C10.787 16.0084 11.4461 15.0883 12.0753 14.1479C12.8287 13.0802 13.1312 12.0275 13.1432 11.9735C13.1192 11.9651 11.1105 11.1981 11.0901 8.88023ZM9.16909 3.19187C9.69377 2.53589 10.0528 1.64344 9.95311 0.737793C9.1937 0.771402 8.24399 1.26294 7.69709 1.90451C7.21323 2.46987 6.781 3.39652 6.89266 4.26796C7.74572 4.33158 8.62159 3.83764 9.16909 3.19187Z" fill="white"/>
</svg>
