<svg width="10" height="14" viewBox="0 0 10 14" fill="none" xmlns="http://www.w3.org/2000/svg">
<path d="M5.89433 13.9998H3.96082C3.49562 13.9998 3.1031 13.6072 3.1031 13.142V7.92302H1.50396C1.03876 7.92302 0.64624 7.5305 0.64624 7.0653V5.56792C0.64624 5.10272 1.03876 4.7102 1.50396 4.7102H3.08857V3.3582C3.08857 1.352 4.41149 0 6.38861 0H7.85692C8.32212 0 8.71464 0.392517 8.71464 0.857722V2.63132C8.71464 3.09652 8.32212 3.48904 7.85692 3.48904H6.83928C6.8102 3.48904 6.78113 3.48904 6.76659 3.48904C6.76659 3.51811 6.76659 3.53265 6.76659 3.54719V4.7102H8.22036C8.48204 4.7102 8.72917 4.8265 8.88909 5.03003C9.049 5.23355 9.12169 5.49523 9.06354 5.74237L8.75825 7.22521C8.68556 7.61773 8.32212 7.90848 7.91507 7.90848H6.75205V13.142C6.75205 13.5927 6.35954 13.9998 5.89433 13.9998ZM1.50396 5.50977C1.47489 5.50977 1.44581 5.53885 1.44581 5.56792V7.07984C1.44581 7.10891 1.47489 7.13799 1.50396 7.13799H3.90267V13.142C3.90267 13.1711 3.93175 13.2002 3.96082 13.2002H5.89433C5.92341 13.2002 5.95248 13.1711 5.95248 13.142V7.10891H7.91507C7.94414 7.10891 7.97322 7.09437 7.97322 7.07984L8.27851 5.58246C8.27851 5.55338 8.27851 5.53885 8.26397 5.52431C8.24943 5.50977 8.2349 5.50977 8.20582 5.50977H5.96702V3.54719C5.96702 3.02383 6.1124 2.68947 6.83928 2.68947H7.85692C7.88599 2.68947 7.91507 2.66039 7.91507 2.63132V0.843184C7.91507 0.814109 7.88599 0.785033 7.85692 0.785033H6.38861C4.8767 0.785033 3.88814 1.78813 3.88814 3.34366V5.49523H1.50396V5.50977Z" fill="white"/>
</svg>
