<svg width="23" height="16" viewBox="0 0 23 16" fill="none" xmlns="http://www.w3.org/2000/svg">
<path d="M22.3019 7.99998C22.3019 7.99992 22.3019 7.99988 21.8019 7.99988L21.8644 3.05658C21.8644 3.05655 21.8644 3.05651 21.8644 3.05647C21.5869 2.02233 20.7797 1.21508 19.7455 0.937549C19.3042 0.818389 18.5774 0.737512 17.7776 0.678708C16.9633 0.618831 16.029 0.579151 15.1481 0.552776C14.2663 0.526376 13.4339 0.513189 12.8223 0.506598C12.5163 0.503301 12.2654 0.501652 12.0907 0.500827C12.0034 0.500414 11.9352 0.500207 11.8887 0.500104L11.8356 0.500013L11.8219 0.500002L11.8184 0.5L11.8174 0.5L11.8172 0.5C11.8171 0.5 11.8171 0.5 11.8171 1C11.8171 0.5 11.817 0.5 11.817 0.5L11.8167 0.5L11.8158 0.5L11.8123 0.500002L11.7986 0.500013L11.7455 0.500104C11.699 0.500207 11.6307 0.500414 11.5434 0.500827C11.3688 0.501652 11.1178 0.503301 10.8119 0.506598C10.2002 0.513189 9.36787 0.526376 8.48612 0.552776C7.60517 0.579151 6.67086 0.618831 5.85654 0.678708C5.05666 0.737522 4.32971 0.818418 3.88841 0.937612C2.85451 1.21517 2.04745 2.02223 1.76989 3.05613C1.54427 3.89123 1.43795 5.14336 1.3855 6.15033C1.35888 6.6615 1.34559 7.12292 1.33894 7.45652C1.33562 7.62343 1.33395 7.75863 1.33312 7.85238C1.3327 7.89927 1.33249 7.93581 1.33238 7.96079L1.33229 7.98945L1.33228 7.997L1.33228 7.99903L1.33228 7.9996L1.33228 7.99978C1.33228 7.99984 1.33228 7.99988 1.83228 7.99988C1.33228 7.99988 1.33228 7.99992 1.33228 7.99998L1.33228 8.00015L1.33228 8.00073L1.33228 8.00276L1.33229 8.01031L1.33238 8.03897C1.33249 8.06395 1.3327 8.10049 1.33312 8.14737C1.33395 8.24113 1.33562 8.37632 1.33894 8.54324C1.34559 8.87684 1.35888 9.33826 1.3855 9.84943C1.43795 10.8564 1.54427 12.1086 1.76991 12.9437C2.04752 13.9777 2.85473 14.7848 3.88878 15.0622C4.33012 15.1814 5.05689 15.2623 5.85654 15.3211C6.67086 15.3809 7.60517 15.4206 8.48612 15.447C9.36787 15.4734 10.2002 15.4866 10.8119 15.4932C11.1178 15.4965 11.3688 15.4981 11.5434 15.4989C11.6307 15.4993 11.699 15.4996 11.7455 15.4997L11.7986 15.4997L11.8123 15.4998L11.8158 15.4998H11.8167H11.817C11.817 15.4998 11.8171 15.4998 11.8171 14.9998C11.8171 15.4998 11.8171 15.4998 11.8172 15.4998H11.8174H11.8184L11.8219 15.4998L11.8356 15.4997L11.8887 15.4997C11.9352 15.4996 12.0034 15.4993 12.0907 15.4989C12.2654 15.4981 12.5163 15.4965 12.8223 15.4932C13.4339 15.4866 14.2663 15.4734 15.1481 15.447C16.029 15.4206 16.9633 15.3809 17.7776 15.3211C18.5772 15.2623 19.304 15.1814 19.7453 15.0623C20.7795 14.7848 21.5868 13.9775 21.8644 12.9434C22.0899 12.1083 22.1962 10.8563 22.2487 9.84943C22.2753 9.33826 22.2886 8.87684 22.2952 8.54324C22.2986 8.37632 22.3002 8.24113 22.3011 8.14737C22.3015 8.10049 22.3017 8.06395 22.3018 8.03897L22.3019 8.01031L22.3019 8.00276L22.3019 8.00073V8.00015V7.99998ZM14.0117 7.99836L10.3201 10.1206V5.86115L14.0117 7.99836Z" stroke="white"/>
</svg>
